<?xml version="1.0" encoding="UTF-8"?>
<svg id="Capa_2" data-name="Capa 2" xmlns="http://www.w3.org/2000/svg" viewBox="0 0 335.85 245.41">
  <defs>
    <style>
      .cls-1 {
        fill: #d7cbbb;
      }

      .cls-1, .cls-2 {
        stroke-width: 0px;
      }

      .cls-3 {
        letter-spacing: 0em;
      }

      .cls-4 {
        fill: #1d1d1b;
        font-family: MinionConceptRoman-Bold, 'Minion Variable Concept';
        font-size: 46.75px;
        font-variation-settings: 'wght' 700, 'opsz' 11;
        font-weight: 700;
      }

      .cls-5 {
        letter-spacing: .02em;
      }

      .cls-6 {
        letter-spacing: .08em;
      }

      .cls-7 {
        letter-spacing: .02em;
      }

      .cls-2 {
        fill: #212220;
      }

      .cls-8 {
        letter-spacing: 0em;
      }
    </style>
  </defs>
  <g id="Capa_1-2" data-name="Capa 1">
    <g>
      <rect class="cls-1" width="335.85" height="245.41"/>
      <g>
        <path class="cls-2" d="M195.26,84.06l-18,31.18c-.51.88.13,1.97,1.14,1.97h36.01c1.01,0,1.64-1.1,1.14-1.97l-18-31.18c-.51-.88-1.77-.88-2.28,0Z"/>
        <path class="cls-2" d="M138.32,84.06l-18,31.18c-.51.88.13,1.97,1.14,1.97h36.01c1.01,0,1.64-1.1,1.14-1.97l-18-31.18c-.51-.88-1.77-.88-2.28,0Z"/>
        <path class="cls-2" d="M167.89,40.76c-1.49,0-3.15,2.85-5.8,7.25-2.06,3.47-4.64,7.8-7.06,11.87-1.94,3.27-3.79,6.34-5.17,8.73-1.15,2.34-3.25,4.91-1.61,6.4,1.64.95,4.1.75,6.14.85,7.07.03,19.36.02,26.63,0,2.2-.11,4.9.16,6.64-.91,1.51-1.53-.51-4-1.78-6.54-1.55-2.66-3.64-6.15-5.79-9.77-2.35-3.95-4.78-8.03-6.7-11.26-2.45-4.06-4-6.64-5.43-6.64h-.07Z"/>
        <path class="cls-2" d="M167.95,106.57c1.43,0,2.98-2.58,5.43-6.64,1.92-3.23,4.35-7.31,6.7-11.26,2.15-3.63,4.25-7.11,5.79-9.77,1.29-2.55,3.28-4.99,1.78-6.54-1.75-1.07-4.44-.79-6.64-.91-7.27-.02-19.57-.03-26.63,0-2.05.1-4.51-.1-6.14.85-1.65,1.48.47,4.08,1.61,6.4,1.38,2.39,3.23,5.46,5.17,8.73,2.42,4.07,5,8.41,7.06,11.87,2.65,4.41,4.3,7.26,5.8,7.25h.07Z"/>
      </g>
      <text class="cls-4" transform="translate(17.1 170.87)"><tspan class="cls-7" x="0" y="0">A</tspan><tspan x="30.06" y="0">H</tspan><tspan class="cls-3" x="67.37" y="0">U</tspan><tspan class="cls-5" x="101.04" y="0">M</tspan><tspan class="cls-7" x="144.28" y="0">A</tspan><tspan class="cls-8" x="174.35" y="0">D</tspan><tspan x="210.35" y="0">E</tspan><tspan class="cls-6" x="238.77" y="0">R</tspan><tspan x="272.81" y="0">A</tspan></text>
    </g>
  </g>
</svg>