<?xml version="1.0" encoding="UTF-8"?>
<svg id="Capa_2" data-name="Capa 2" xmlns="http://www.w3.org/2000/svg" viewBox="0 0 350.65 350.65">
  <defs>
    <style>
      .cls-1 {
        fill: #d7cbbb;
      }

      .cls-1, .cls-2 {
        stroke-width: 0px;
      }

      .cls-2 {
        fill: #212220;
      }
    </style>
  </defs>
  <g id="Capa_1-2" data-name="Capa 1">
    <g>
      <circle class="cls-1" cx="175.32" cy="175.32" r="175.32"/>
      <g>
        <path class="cls-2" d="M250.09,165.44l-51.79,89.71c-.51.88.13,1.97,1.14,1.97h103.59c1.01,0,1.64-1.1,1.14-1.97l-51.79-89.71c-.51-.88-1.77-.88-2.28,0Z"/>
        <path class="cls-2" d="M98.28,165.44l-51.79,89.71c-.51.88.13,1.97,1.14,1.97h103.59c1.01,0,1.64-1.1,1.14-1.97l-51.79-89.71c-.51-.88-1.77-.88-2.28,0Z"/>
        <path class="cls-2" d="M175.23,53.3c-3.98,0-8.39,7.6-15.45,19.34-5.5,9.24-12.37,20.79-18.83,31.65-5.16,8.71-10.1,16.89-13.77,23.27-3.08,6.23-8.66,13.08-4.3,17.07,4.37,2.53,10.92,2.01,16.38,2.27,18.84.09,51.62.06,71.01.01,5.86-.29,13.07.43,17.71-2.41,4.02-4.07-1.35-10.67-4.75-17.43-4.12-7.1-9.71-16.39-15.45-26.06-6.27-10.53-12.73-21.42-17.86-30.02-6.52-10.84-10.67-17.69-14.47-17.7h-.19Z"/>
        <path class="cls-2" d="M175.38,228.77c3.81-.01,7.95-6.87,14.47-17.7,5.13-8.6,11.6-19.49,17.86-30.02,5.73-9.67,11.33-18.96,15.45-26.06,3.43-6.81,8.75-13.31,4.75-17.43-4.66-2.84-11.84-2.11-17.71-2.41-19.38-.05-52.17-.07-71.01.01-5.45.26-12.01-.26-16.37,2.27-4.39,3.95,1.26,10.89,4.3,17.07,3.68,6.38,8.61,14.56,13.78,23.27,6.46,10.86,13.33,22.41,18.83,31.65,7.06,11.75,11.47,19.34,15.45,19.34h.19Z"/>
      </g>
    </g>
  </g>
</svg>